<svg xmlns="http://www.w3.org/2000/svg" xmlns:xlink="http://www.w3.org/1999/xlink" width="492" zoomAndPan="magnify" viewBox="0 0 369 368.999991" height="492" preserveAspectRatio="xMidYMid meet" version="1.0"><path fill="#ffffff" d="M 155.746094 336.484375 C 155.230469 333.289062 154.984375 330.132812 155.015625 327.019531 C 155.015625 326.871094 155.019531 326.726562 155.023438 326.582031 C 155.164062 320.164062 155.203125 314.46875 155.132812 309.488281 L 155.132812 309.496094 C 154.980469 298.753906 154.730469 286.71875 154.375 273.386719 L 154.382812 273.570312 C 153.1875 235.898438 151.773438 193.398438 150.136719 146.078125 L 150.132812 145.980469 C 149.746094 133.785156 149.441406 122.378906 149.21875 111.761719 L 149.21875 111.757812 C 148.484375 76.464844 148.425781 51.003906 149.039062 35.382812 C 149.808594 15.808594 166.304688 0.5625 185.878906 1.332031 C 205.457031 2.101562 220.703125 18.597656 219.933594 38.171875 C 219.375 52.375 219.445312 76.410156 220.152344 110.285156 L 220.152344 110.28125 C 220.367188 120.648438 220.664062 131.792969 221.046875 143.71875 L 221.042969 143.625 C 222.683594 191.011719 224.101562 233.582031 225.292969 271.324219 C 225.296875 271.386719 225.296875 271.445312 225.300781 271.507812 C 225.660156 285.136719 225.917969 297.464844 226.074219 308.492188 L 226.074219 308.5 C 226.15625 314.335938 226.117188 320.886719 225.953125 328.15625 L 225.960938 327.71875 C 225.96875 326.789062 225.910156 325.921875 225.78125 325.121094 C 228.917969 344.460938 215.785156 362.679688 196.445312 365.820312 C 177.105469 368.957031 158.886719 355.824219 155.746094 336.484375 Z M 155.746094 336.484375 " fill-opacity="1" fill-rule="nonzero"/><path fill="#ffffff" d="M 32.433594 145.292969 C 35.628906 144.773438 38.785156 144.53125 41.902344 144.5625 C 42.046875 144.5625 42.195312 144.566406 42.339844 144.570312 C 48.753906 144.710938 54.453125 144.75 59.429688 144.679688 L 59.425781 144.679688 C 70.164062 144.527344 82.199219 144.273438 95.53125 143.921875 L 95.351562 143.925781 C 133.023438 142.734375 175.519531 141.320312 222.84375 139.683594 L 222.9375 139.679688 C 235.128906 139.292969 246.535156 138.984375 257.15625 138.765625 L 257.160156 138.765625 C 292.453125 138.03125 317.914062 137.972656 333.535156 138.585938 C 353.109375 139.355469 368.355469 155.851562 367.585938 175.425781 C 366.816406 195.003906 350.324219 210.25 330.746094 209.480469 C 316.546875 208.921875 292.507812 208.992188 258.632812 209.695312 L 258.636719 209.695312 C 248.277344 209.914062 237.128906 210.210938 225.199219 210.589844 L 225.296875 210.589844 C 177.902344 212.226562 135.335938 213.644531 97.59375 214.839844 C 97.53125 214.839844 97.472656 214.84375 97.410156 214.84375 C 83.785156 215.207031 71.457031 215.464844 60.425781 215.621094 L 60.417969 215.621094 C 54.585938 215.699219 48.03125 215.660156 40.761719 215.5 L 41.199219 215.507812 C 42.128906 215.515625 42.996094 215.453125 43.796875 215.324219 C 24.457031 218.460938 6.238281 205.328125 3.101562 185.988281 C -0.0351562 166.652344 13.097656 148.429688 32.433594 145.292969 Z M 32.433594 145.292969 " fill-opacity="1" fill-rule="nonzero"/></svg>