<svg xmlns="http://www.w3.org/2000/svg" xmlns:xlink="http://www.w3.org/1999/xlink" width="492" zoomAndPan="magnify" viewBox="0 0 369 368.999991" height="492" preserveAspectRatio="xMidYMid meet" version="1.0"><defs><clipPath id="5588c1ae72"><path d="M 2.25 2.25 L 366 2.25 L 366 366 L 2.25 366 Z M 2.25 2.25 " clip-rule="nonzero"/></clipPath></defs><g clip-path="url(#5588c1ae72)"><path fill="#df5a1c" d="M 183.59375 365.84375 C 82.9375 365.84375 1.34375 284.246094 1.34375 183.59375 C 1.34375 82.9375 82.9375 1.34375 183.59375 1.34375 C 284.246094 1.34375 365.84375 82.9375 365.84375 183.59375 C 365.84375 284.246094 284.246094 365.84375 183.59375 365.84375 Z M 183.59375 327.761719 C 263.214844 327.761719 327.761719 263.214844 327.761719 183.59375 C 327.761719 103.972656 263.214844 39.425781 183.59375 39.425781 C 103.972656 39.425781 39.425781 103.972656 39.425781 183.59375 C 39.425781 263.214844 103.972656 327.761719 183.59375 327.761719 Z M 193.566406 183.59375 L 152.902344 143.5625 C 145.464844 136.125 145.464844 124.070312 152.902344 116.632812 C 160.335938 109.195312 172.394531 109.195312 179.828125 116.632812 L 234.234375 171.035156 C 241.667969 178.472656 241.667969 190.527344 234.234375 197.964844 L 179.828125 252.367188 C 172.394531 259.804688 160.335938 259.804688 152.902344 252.367188 C 145.464844 244.929688 145.464844 232.875 152.902344 225.4375 Z M 193.566406 183.59375 " fill-opacity="1" fill-rule="nonzero"/></g></svg>