<svg xmlns="http://www.w3.org/2000/svg" xmlns:xlink="http://www.w3.org/1999/xlink" width="492" zoomAndPan="magnify" viewBox="0 0 369 368.999991" height="492" preserveAspectRatio="xMidYMid meet" version="1.0"><path fill="#df5a1c" d="M 184.5 10.960938 C 88.808594 10.960938 10.960938 88.808594 10.960938 184.5 C 10.960938 280.191406 88.808594 358.039062 184.5 358.039062 C 280.191406 358.039062 358.039062 280.191406 358.039062 184.5 C 358.039062 88.808594 280.191406 10.960938 184.5 10.960938 Z M 184.5 369 C 82.765625 369 0 286.234375 0 184.5 C 0 82.765625 82.765625 0 184.5 0 C 286.234375 0 369 82.765625 369 184.5 C 369 286.234375 286.234375 369 184.5 369 " fill-opacity="1" fill-rule="nonzero"/><path fill="#b3b3b3" d="M 347.050781 184.5 C 347.050781 274.273438 274.277344 347.050781 184.5 347.050781 C 94.722656 347.050781 21.949219 274.273438 21.949219 184.5 C 21.949219 94.722656 94.722656 21.949219 184.5 21.949219 C 274.277344 21.949219 347.050781 94.722656 347.050781 184.5 " fill-opacity="1" fill-rule="nonzero"/><path fill="#e1e1e1" d="M 244.699219 149.789062 C 244.699219 183.039062 217.75 209.992188 184.5 209.992188 C 151.25 209.992188 124.300781 183.039062 124.300781 149.789062 C 124.300781 116.542969 151.25 89.59375 184.5 89.59375 C 217.75 89.59375 244.699219 116.542969 244.699219 149.789062 " fill-opacity="1" fill-rule="nonzero"/><path fill="#e1e1e1" d="M 184.5 222.445312 C 136.847656 222.445312 96.894531 255.230469 85.867188 299.46875 C 112.402344 322.265625 146.855469 336.089844 184.5 336.089844 C 222.144531 336.089844 256.597656 322.265625 283.132812 299.46875 C 272.105469 255.230469 232.152344 222.445312 184.5 222.445312 " fill-opacity="1" fill-rule="nonzero"/><path fill="#e1e1e1" d="M 83.554688 311.90625 C 83.554688 311.90625 83.554688 311.910156 83.558594 311.910156 C 83.554688 311.910156 83.554688 311.90625 83.554688 311.90625 " fill-opacity="1" fill-rule="nonzero"/></svg>