<svg xmlns="http://www.w3.org/2000/svg" xmlns:xlink="http://www.w3.org/1999/xlink" width="492" zoomAndPan="magnify" viewBox="0 0 369 368.999991" height="492" preserveAspectRatio="xMidYMid meet" version="1.0"><path fill="#df5a1c" d="M 184.5 0 C 181.480469 0 178.460938 0.0742188 175.445312 0.222656 C 172.429688 0.371094 169.421875 0.59375 166.414062 0.886719 C 163.410156 1.183594 160.414062 1.554688 157.429688 1.996094 C 154.441406 2.441406 151.46875 2.957031 148.503906 3.546875 C 145.542969 4.132812 142.597656 4.796875 139.671875 5.527344 C 136.742188 6.261719 133.832031 7.066406 130.941406 7.945312 C 128.054688 8.820312 125.1875 9.769531 122.34375 10.785156 C 119.5 11.800781 116.683594 12.890625 113.894531 14.042969 C 111.105469 15.199219 108.34375 16.421875 105.617188 17.714844 C 102.886719 19.003906 100.191406 20.363281 97.527344 21.785156 C 94.863281 23.207031 92.238281 24.695312 89.648438 26.25 C 87.058594 27.800781 84.507812 29.417969 81.996094 31.09375 C 79.488281 32.769531 77.019531 34.507812 74.59375 36.308594 C 72.167969 38.105469 69.789062 39.964844 67.453125 41.878906 C 65.121094 43.796875 62.835938 45.765625 60.597656 47.792969 C 58.359375 49.824219 56.175781 51.902344 54.039062 54.039062 C 51.902344 56.175781 49.824219 58.359375 47.792969 60.597656 C 45.765625 62.835938 43.796875 65.121094 41.878906 67.453125 C 39.964844 69.789062 38.105469 72.167969 36.308594 74.59375 C 34.507812 77.019531 32.769531 79.488281 31.09375 81.996094 C 29.417969 84.507812 27.800781 87.058594 26.25 89.648438 C 24.695312 92.238281 23.207031 94.863281 21.785156 97.527344 C 20.363281 100.191406 19.003906 102.886719 17.714844 105.617188 C 16.421875 108.34375 15.199219 111.105469 14.042969 113.894531 C 12.890625 116.683594 11.800781 119.5 10.785156 122.34375 C 9.769531 125.1875 8.820312 128.054688 7.945312 130.941406 C 7.066406 133.832031 6.261719 136.742188 5.527344 139.671875 C 4.796875 142.597656 4.132812 145.542969 3.546875 148.503906 C 2.957031 151.46875 2.441406 154.441406 1.996094 157.429688 C 1.554688 160.414062 1.183594 163.410156 0.886719 166.414062 C 0.59375 169.421875 0.371094 172.429688 0.222656 175.445312 C 0.0742188 178.460938 0 181.480469 0 184.5 C 0 187.519531 0.0742188 190.539062 0.222656 193.554688 C 0.371094 196.570312 0.59375 199.578125 0.886719 202.585938 C 1.183594 205.589844 1.554688 208.585938 1.996094 211.570312 C 2.441406 214.558594 2.957031 217.53125 3.546875 220.496094 C 4.132812 223.457031 4.796875 226.402344 5.527344 229.328125 C 6.261719 232.257812 7.066406 235.167969 7.945312 238.058594 C 8.820312 240.945312 9.769531 243.8125 10.785156 246.65625 C 11.800781 249.5 12.890625 252.316406 14.042969 255.105469 C 15.199219 257.894531 16.421875 260.652344 17.714844 263.382812 C 19.003906 266.113281 20.363281 268.808594 21.785156 271.472656 C 23.207031 274.136719 24.695312 276.761719 26.25 279.351562 C 27.800781 281.941406 29.417969 284.492188 31.09375 287.003906 C 32.769531 289.511719 34.507812 291.980469 36.308594 294.40625 C 38.105469 296.832031 39.964844 299.210938 41.878906 301.546875 C 43.796875 303.878906 45.765625 306.164062 47.792969 308.402344 C 49.824219 310.640625 51.902344 312.824219 54.039062 314.960938 C 56.175781 317.097656 58.359375 319.175781 60.597656 321.207031 C 62.835938 323.234375 65.121094 325.203125 67.453125 327.121094 C 69.789062 329.035156 72.167969 330.894531 74.59375 332.691406 C 77.019531 334.492188 79.488281 336.230469 81.996094 337.90625 C 84.507812 339.582031 87.058594 341.199219 89.648438 342.75 C 92.238281 344.304688 94.863281 345.792969 97.527344 347.214844 C 100.191406 348.636719 102.886719 349.996094 105.617188 351.285156 C 108.34375 352.578125 111.105469 353.800781 113.894531 354.957031 C 116.683594 356.109375 119.5 357.199219 122.34375 358.214844 C 125.1875 359.230469 128.054688 360.179688 130.941406 361.054688 C 133.832031 361.933594 136.742188 362.738281 139.671875 363.472656 C 142.597656 364.203125 145.542969 364.867188 148.503906 365.453125 C 151.46875 366.042969 154.441406 366.558594 157.429688 367.003906 C 160.414062 367.445312 163.410156 367.816406 166.414062 368.113281 C 169.421875 368.40625 172.429688 368.628906 175.445312 368.777344 C 178.460938 368.925781 181.480469 369 184.5 369 C 187.519531 369 190.539062 368.925781 193.554688 368.777344 C 196.570312 368.628906 199.578125 368.40625 202.585938 368.113281 C 205.589844 367.816406 208.585938 367.445312 211.570312 367.003906 C 214.558594 366.558594 217.53125 366.042969 220.496094 365.453125 C 223.457031 364.867188 226.402344 364.203125 229.328125 363.472656 C 232.257812 362.738281 235.167969 361.933594 238.058594 361.054688 C 240.945312 360.179688 243.8125 359.230469 246.65625 358.214844 C 249.5 357.199219 252.316406 356.109375 255.105469 354.957031 C 257.894531 353.800781 260.652344 352.578125 263.382812 351.285156 C 266.113281 349.996094 268.808594 348.636719 271.472656 347.214844 C 274.136719 345.792969 276.761719 344.304688 279.351562 342.75 C 281.941406 341.199219 284.492188 339.582031 287.003906 337.90625 C 289.511719 336.230469 291.980469 334.492188 294.40625 332.691406 C 296.832031 330.894531 299.210938 329.035156 301.546875 327.121094 C 303.878906 325.203125 306.164062 323.234375 308.402344 321.207031 C 310.640625 319.175781 312.824219 317.097656 314.960938 314.960938 C 317.097656 312.824219 319.175781 310.640625 321.207031 308.402344 C 323.234375 306.164062 325.203125 303.878906 327.121094 301.546875 C 329.035156 299.210938 330.894531 296.832031 332.691406 294.40625 C 334.492188 291.980469 336.230469 289.511719 337.90625 287.003906 C 339.582031 284.492188 341.199219 281.941406 342.75 279.351562 C 344.304688 276.761719 345.792969 274.136719 347.214844 271.472656 C 348.636719 268.808594 349.996094 266.113281 351.285156 263.382812 C 352.578125 260.652344 353.800781 257.894531 354.957031 255.105469 C 356.109375 252.316406 357.199219 249.5 358.214844 246.65625 C 359.230469 243.8125 360.179688 240.945312 361.054688 238.058594 C 361.933594 235.167969 362.738281 232.257812 363.472656 229.328125 C 364.203125 226.402344 364.867188 223.457031 365.453125 220.496094 C 366.042969 217.53125 366.558594 214.558594 367.003906 211.570312 C 367.445312 208.585938 367.816406 205.589844 368.113281 202.585938 C 368.40625 199.578125 368.628906 196.570312 368.777344 193.554688 C 368.925781 190.539062 369 187.519531 369 184.5 C 369 181.480469 368.925781 178.460938 368.777344 175.445312 C 368.628906 172.429688 368.40625 169.421875 368.113281 166.414062 C 367.816406 163.410156 367.445312 160.414062 367.003906 157.429688 C 366.558594 154.441406 366.042969 151.46875 365.453125 148.503906 C 364.867188 145.542969 364.203125 142.597656 363.472656 139.671875 C 362.738281 136.742188 361.933594 133.832031 361.054688 130.941406 C 360.179688 128.054688 359.230469 125.1875 358.214844 122.34375 C 357.199219 119.5 356.109375 116.683594 354.957031 113.894531 C 353.800781 111.105469 352.578125 108.34375 351.285156 105.617188 C 349.996094 102.886719 348.636719 100.191406 347.214844 97.527344 C 345.792969 94.863281 344.304688 92.238281 342.75 89.648438 C 341.199219 87.058594 339.582031 84.507812 337.90625 81.996094 C 336.230469 79.488281 334.492188 77.019531 332.691406 74.59375 C 330.894531 72.167969 329.035156 69.789062 327.121094 67.453125 C 325.203125 65.121094 323.234375 62.835938 321.207031 60.597656 C 319.175781 58.359375 317.097656 56.175781 314.960938 54.039062 C 312.824219 51.902344 310.640625 49.824219 308.402344 47.792969 C 306.164062 45.765625 303.878906 43.796875 301.546875 41.878906 C 299.210938 39.964844 296.832031 38.105469 294.40625 36.308594 C 291.980469 34.507812 289.511719 32.769531 287.003906 31.09375 C 284.492188 29.417969 281.941406 27.800781 279.351562 26.25 C 276.761719 24.695312 274.136719 23.207031 271.472656 21.785156 C 268.808594 20.363281 266.113281 19.003906 263.382812 17.714844 C 260.652344 16.421875 257.894531 15.199219 255.105469 14.042969 C 252.316406 12.890625 249.5 11.800781 246.65625 10.785156 C 243.8125 9.769531 240.945312 8.820312 238.058594 7.945312 C 235.167969 7.066406 232.257812 6.261719 229.328125 5.527344 C 226.402344 4.796875 223.457031 4.132812 220.496094 3.546875 C 217.53125 2.957031 214.558594 2.441406 211.570312 1.996094 C 208.585938 1.554688 205.589844 1.183594 202.585938 0.886719 C 199.578125 0.59375 196.570312 0.371094 193.554688 0.222656 C 190.539062 0.0742188 187.519531 0 184.5 0 Z M 184.5 345.195312 C 181.871094 345.195312 179.242188 345.128906 176.613281 345 C 173.988281 344.871094 171.367188 344.675781 168.75 344.417969 C 166.132812 344.160156 163.523438 343.839844 160.921875 343.453125 C 158.320312 343.070312 155.730469 342.617188 153.148438 342.105469 C 150.570312 341.59375 148.003906 341.015625 145.453125 340.378906 C 142.902344 339.738281 140.371094 339.039062 137.851562 338.273438 C 135.335938 337.511719 132.839844 336.6875 130.363281 335.800781 C 127.886719 334.914062 125.433594 333.96875 123.003906 332.960938 C 120.574219 331.953125 118.171875 330.890625 115.792969 329.765625 C 113.417969 328.640625 111.070312 327.457031 108.75 326.21875 C 106.429688 324.980469 104.144531 323.683594 101.886719 322.332031 C 99.632812 320.980469 97.410156 319.574219 95.222656 318.113281 C 93.035156 316.652344 90.886719 315.136719 88.773438 313.570312 C 86.664062 312.003906 84.589844 310.386719 82.558594 308.71875 C 80.523438 307.050781 78.535156 305.332031 76.585938 303.566406 C 74.636719 301.800781 72.730469 299.988281 70.871094 298.128906 C 69.011719 296.269531 67.199219 294.363281 65.433594 292.414062 C 63.667969 290.464844 61.949219 288.476562 60.28125 286.441406 C 58.613281 284.410156 56.996094 282.335938 55.429688 280.226562 C 53.863281 278.113281 52.347656 275.964844 50.886719 273.777344 C 49.425781 271.589844 48.019531 269.367188 46.667969 267.113281 C 45.316406 264.855469 44.019531 262.570312 42.78125 260.25 C 41.542969 257.929688 40.359375 255.582031 39.234375 253.207031 C 38.109375 250.828125 37.046875 248.425781 36.039062 245.996094 C 35.03125 243.566406 34.085938 241.113281 33.199219 238.636719 C 32.3125 236.160156 31.488281 233.664062 30.726562 231.148438 C 29.960938 228.628906 29.261719 226.097656 28.621094 223.546875 C 27.984375 220.996094 27.40625 218.429688 26.894531 215.851562 C 26.382812 213.269531 25.929688 210.679688 25.546875 208.078125 C 25.160156 205.476562 24.839844 202.867188 24.582031 200.25 C 24.324219 197.632812 24.128906 195.011719 24 192.386719 C 23.871094 189.757812 23.804688 187.128906 23.804688 184.5 C 23.804688 181.871094 23.871094 179.242188 24 176.613281 C 24.128906 173.988281 24.324219 171.367188 24.582031 168.75 C 24.839844 166.132812 25.160156 163.523438 25.546875 160.921875 C 25.929688 158.320312 26.382812 155.730469 26.894531 153.148438 C 27.40625 150.570312 27.984375 148.003906 28.621094 145.453125 C 29.261719 142.902344 29.960938 140.371094 30.726562 137.851562 C 31.488281 135.335938 32.3125 132.839844 33.199219 130.363281 C 34.085938 127.886719 35.03125 125.433594 36.039062 123.003906 C 37.046875 120.574219 38.109375 118.171875 39.234375 115.792969 C 40.359375 113.417969 41.542969 111.070312 42.78125 108.75 C 44.019531 106.429688 45.316406 104.144531 46.667969 101.886719 C 48.019531 99.632812 49.425781 97.410156 50.886719 95.222656 C 52.347656 93.035156 53.863281 90.886719 55.429688 88.773438 C 56.996094 86.664062 58.613281 84.589844 60.28125 82.558594 C 61.949219 80.523438 63.667969 78.535156 65.433594 76.585938 C 67.199219 74.636719 69.011719 72.730469 70.871094 70.871094 C 72.730469 69.011719 74.636719 67.199219 76.585938 65.433594 C 78.535156 63.667969 80.523438 61.949219 82.558594 60.28125 C 84.589844 58.613281 86.664062 56.996094 88.773438 55.429688 C 90.886719 53.863281 93.035156 52.347656 95.222656 50.886719 C 97.410156 49.425781 99.632812 48.019531 101.886719 46.667969 C 104.144531 45.316406 106.429688 44.019531 108.75 42.78125 C 111.070312 41.542969 113.417969 40.359375 115.792969 39.234375 C 118.171875 38.109375 120.574219 37.046875 123.003906 36.039062 C 125.433594 35.03125 127.886719 34.085938 130.363281 33.199219 C 132.839844 32.3125 135.335938 31.488281 137.851562 30.726562 C 140.371094 29.960938 142.902344 29.261719 145.453125 28.621094 C 148.003906 27.984375 150.570312 27.40625 153.148438 26.894531 C 155.730469 26.382812 158.320312 25.929688 160.921875 25.546875 C 163.523438 25.160156 166.132812 24.839844 168.75 24.582031 C 171.367188 24.324219 173.988281 24.128906 176.613281 24 C 179.242188 23.871094 181.871094 23.804688 184.5 23.804688 C 187.128906 23.804688 189.757812 23.871094 192.386719 24 C 195.011719 24.128906 197.632812 24.324219 200.25 24.582031 C 202.867188 24.839844 205.476562 25.160156 208.078125 25.546875 C 210.679688 25.929688 213.269531 26.382812 215.851562 26.894531 C 218.429688 27.40625 220.996094 27.984375 223.546875 28.621094 C 226.097656 29.261719 228.628906 29.960938 231.148438 30.726562 C 233.664062 31.488281 236.160156 32.3125 238.636719 33.199219 C 241.113281 34.085938 243.566406 35.03125 245.996094 36.039062 C 248.425781 37.046875 250.828125 38.109375 253.207031 39.234375 C 255.582031 40.359375 257.929688 41.542969 260.25 42.78125 C 262.570312 44.019531 264.855469 45.316406 267.113281 46.667969 C 269.367188 48.019531 271.589844 49.425781 273.777344 50.886719 C 275.964844 52.347656 278.113281 53.863281 280.226562 55.429688 C 282.335938 56.996094 284.410156 58.613281 286.441406 60.28125 C 288.476562 61.949219 290.464844 63.667969 292.414062 65.433594 C 294.363281 67.199219 296.269531 69.011719 298.128906 70.871094 C 299.988281 72.730469 301.800781 74.636719 303.566406 76.585938 C 305.332031 78.535156 307.050781 80.523438 308.71875 82.558594 C 310.386719 84.589844 312.003906 86.664062 313.570312 88.773438 C 315.136719 90.886719 316.652344 93.035156 318.113281 95.222656 C 319.574219 97.410156 320.980469 99.632812 322.332031 101.886719 C 323.683594 104.144531 324.980469 106.429688 326.21875 108.75 C 327.457031 111.070312 328.640625 113.417969 329.765625 115.792969 C 330.890625 118.171875 331.953125 120.574219 332.960938 123.003906 C 333.96875 125.433594 334.914062 127.886719 335.800781 130.363281 C 336.6875 132.839844 337.511719 135.335938 338.273438 137.851562 C 339.039062 140.371094 339.738281 142.902344 340.378906 145.453125 C 341.015625 148.003906 341.59375 150.570312 342.105469 153.148438 C 342.617188 155.730469 343.070312 158.320312 343.453125 160.921875 C 343.839844 163.523438 344.160156 166.132812 344.417969 168.75 C 344.675781 171.367188 344.871094 173.988281 345 176.613281 C 345.128906 179.242188 345.195312 181.871094 345.195312 184.5 C 345.195312 187.128906 345.128906 189.757812 345 192.386719 C 344.871094 195.011719 344.675781 197.632812 344.417969 200.25 C 344.160156 202.867188 343.839844 205.476562 343.453125 208.078125 C 343.070312 210.679688 342.617188 213.269531 342.105469 215.851562 C 341.59375 218.429688 341.015625 220.996094 340.378906 223.546875 C 339.738281 226.097656 339.039062 228.628906 338.273438 231.148438 C 337.511719 233.664062 336.6875 236.160156 335.800781 238.636719 C 334.914062 241.113281 333.96875 243.566406 332.960938 245.996094 C 331.953125 248.425781 330.890625 250.828125 329.765625 253.207031 C 328.640625 255.582031 327.457031 257.929688 326.21875 260.25 C 324.980469 262.570312 323.683594 264.855469 322.332031 267.113281 C 320.980469 269.367188 319.574219 271.589844 318.113281 273.777344 C 316.652344 275.964844 315.136719 278.113281 313.570312 280.226562 C 312.003906 282.335938 310.386719 284.410156 308.71875 286.441406 C 307.050781 288.476562 305.332031 290.464844 303.566406 292.414062 C 301.800781 294.363281 299.988281 296.269531 298.128906 298.128906 C 296.269531 299.988281 294.363281 301.800781 292.414062 303.566406 C 290.464844 305.332031 288.476562 307.050781 286.441406 308.71875 C 284.410156 310.386719 282.335938 312.003906 280.226562 313.570312 C 278.113281 315.136719 275.964844 316.652344 273.777344 318.113281 C 271.589844 319.574219 269.367188 320.980469 267.113281 322.332031 C 264.855469 323.683594 262.570312 324.980469 260.25 326.21875 C 257.929688 327.457031 255.582031 328.640625 253.207031 329.765625 C 250.828125 330.890625 248.425781 331.953125 245.996094 332.960938 C 243.566406 333.96875 241.113281 334.914062 238.636719 335.800781 C 236.160156 336.6875 233.664062 337.511719 231.148438 338.273438 C 228.628906 339.039062 226.097656 339.738281 223.546875 340.378906 C 220.996094 341.015625 218.429688 341.59375 215.851562 342.105469 C 213.269531 342.617188 210.679688 343.070312 208.078125 343.453125 C 205.476562 343.839844 202.867188 344.160156 200.25 344.417969 C 197.632812 344.675781 195.011719 344.871094 192.386719 345 C 189.757812 345.128906 187.128906 345.195312 184.5 345.195312 Z M 184.5 345.195312 " fill-opacity="1" fill-rule="nonzero"/><path fill="#df5a1c" d="M 255.917969 113.082031 C 255.367188 112.527344 254.765625 112.03125 254.113281 111.597656 C 253.464844 111.164062 252.777344 110.796875 252.054688 110.496094 C 251.332031 110.199219 250.589844 109.972656 249.820312 109.820312 C 249.054688 109.664062 248.28125 109.589844 247.496094 109.589844 C 246.714844 109.589844 245.941406 109.664062 245.175781 109.820312 C 244.40625 109.972656 243.664062 110.199219 242.941406 110.496094 C 242.21875 110.796875 241.53125 111.164062 240.878906 111.597656 C 240.230469 112.03125 239.628906 112.527344 239.078125 113.082031 L 184.5 167.65625 L 129.804688 113.082031 C 129.238281 112.628906 128.632812 112.234375 127.996094 111.894531 C 127.355469 111.554688 126.691406 111.273438 126 111.054688 C 125.308594 110.835938 124.605469 110.683594 123.886719 110.589844 C 123.167969 110.5 122.445312 110.476562 121.722656 110.519531 C 121 110.558594 120.285156 110.664062 119.582031 110.835938 C 118.878906 111.007812 118.195312 111.242188 117.535156 111.539062 C 116.875 111.835938 116.246094 112.1875 115.648438 112.601562 C 115.050781 113.011719 114.496094 113.472656 113.984375 113.984375 C 113.472656 114.496094 113.011719 115.050781 112.601562 115.648438 C 112.1875 116.246094 111.835938 116.875 111.539062 117.535156 C 111.242188 118.195312 111.007812 118.878906 110.835938 119.582031 C 110.664062 120.285156 110.558594 121 110.519531 121.722656 C 110.476562 122.445312 110.5 123.167969 110.589844 123.886719 C 110.683594 124.605469 110.835938 125.308594 111.054688 126 C 111.273438 126.691406 111.554688 127.355469 111.894531 127.996094 C 112.234375 128.632812 112.628906 129.238281 113.082031 129.804688 L 167.65625 184.5 L 113.082031 239.195312 C 112.753906 239.457031 112.441406 239.730469 112.140625 240.023438 C 111.84375 240.316406 111.5625 240.625 111.296875 240.949219 C 111.03125 241.273438 110.78125 241.609375 110.550781 241.957031 C 110.320312 242.304688 110.109375 242.664062 109.917969 243.039062 C 109.722656 243.410156 109.550781 243.789062 109.398438 244.179688 C 109.246094 244.566406 109.113281 244.964844 109.003906 245.367188 C 108.894531 245.769531 108.804688 246.179688 108.738281 246.589844 C 108.667969 247.003906 108.625 247.417969 108.601562 247.835938 C 108.574219 248.253906 108.574219 248.671875 108.59375 249.089844 C 108.613281 249.507812 108.65625 249.921875 108.71875 250.335938 C 108.785156 250.75 108.871094 251.160156 108.976562 251.5625 C 109.082031 251.96875 109.210938 252.363281 109.359375 252.757812 C 109.507812 253.148438 109.679688 253.527344 109.867188 253.902344 C 110.058594 254.273438 110.265625 254.636719 110.492188 254.988281 C 110.71875 255.339844 110.964844 255.675781 111.226562 256.003906 C 111.492188 256.328125 111.769531 256.636719 112.066406 256.933594 C 112.363281 257.230469 112.671875 257.507812 112.996094 257.773438 C 113.324219 258.035156 113.660156 258.28125 114.011719 258.507812 C 114.363281 258.734375 114.726562 258.941406 115.097656 259.132812 C 115.472656 259.320312 115.851562 259.492188 116.242188 259.640625 C 116.636719 259.789062 117.03125 259.917969 117.4375 260.023438 C 117.839844 260.128906 118.25 260.214844 118.664062 260.28125 C 119.078125 260.34375 119.492188 260.386719 119.910156 260.40625 C 120.328125 260.425781 120.746094 260.425781 121.164062 260.398438 C 121.582031 260.375 121.996094 260.332031 122.410156 260.261719 C 122.820312 260.195312 123.230469 260.105469 123.632812 259.996094 C 124.035156 259.886719 124.433594 259.753906 124.820312 259.601562 C 125.210938 259.449219 125.589844 259.277344 125.960938 259.082031 C 126.335938 258.890625 126.695312 258.679688 127.042969 258.449219 C 127.390625 258.21875 127.726562 257.96875 128.050781 257.703125 C 128.375 257.4375 128.683594 257.15625 128.976562 256.859375 C 129.269531 256.558594 129.542969 256.246094 129.804688 255.917969 L 184.5 201.34375 L 239.195312 255.917969 C 239.761719 256.371094 240.367188 256.765625 241.003906 257.105469 C 241.644531 257.445312 242.308594 257.726562 243 257.945312 C 243.691406 258.164062 244.394531 258.316406 245.113281 258.410156 C 245.832031 258.5 246.554688 258.523438 247.277344 258.480469 C 248 258.441406 248.714844 258.335938 249.417969 258.164062 C 250.121094 257.992188 250.804688 257.757812 251.464844 257.460938 C 252.125 257.164062 252.753906 256.8125 253.351562 256.398438 C 253.949219 255.988281 254.503906 255.527344 255.015625 255.015625 C 255.527344 254.503906 255.988281 253.949219 256.398438 253.351562 C 256.8125 252.753906 257.164062 252.125 257.460938 251.464844 C 257.757812 250.804688 257.992188 250.121094 258.164062 249.417969 C 258.335938 248.714844 258.441406 248 258.480469 247.277344 C 258.523438 246.554688 258.5 245.832031 258.410156 245.113281 C 258.316406 244.394531 258.164062 243.691406 257.945312 243 C 257.726562 242.308594 257.445312 241.644531 257.105469 241.003906 C 256.765625 240.367188 256.371094 239.761719 255.917969 239.195312 L 201.34375 184.5 L 255.917969 129.804688 C 256.464844 129.253906 256.949219 128.652344 257.378906 128.007812 C 257.804688 127.359375 258.164062 126.679688 258.460938 125.960938 C 258.753906 125.246094 258.976562 124.507812 259.125 123.746094 C 259.277344 122.984375 259.351562 122.21875 259.351562 121.441406 C 259.351562 120.667969 259.277344 119.898438 259.125 119.140625 C 258.976562 118.378906 258.753906 117.640625 258.460938 116.921875 C 258.164062 116.207031 257.804688 115.523438 257.378906 114.878906 C 256.949219 114.230469 256.464844 113.632812 255.917969 113.082031 Z M 255.917969 113.082031 " fill-opacity="1" fill-rule="nonzero"/></svg>