<svg xmlns="http://www.w3.org/2000/svg" xmlns:xlink="http://www.w3.org/1999/xlink" width="492" zoomAndPan="magnify" viewBox="0 0 369 368.999991" height="492" preserveAspectRatio="xMidYMid meet" version="1.0"><path fill="#df5a1c" d="M 181.191406 368.921875 C 172.617188 368.921875 164.035156 368.304688 155.472656 367.066406 C 131.648438 363.621094 109.042969 355.511719 88.277344 342.960938 C 67.515625 330.414062 49.828125 314.164062 35.703125 294.671875 C 22.066406 275.847656 12.320312 254.816406 6.734375 232.152344 C 1.148438 209.488281 0 186.335938 3.328125 163.332031 C 6.769531 139.507812 14.878906 116.902344 27.429688 96.140625 C 45.25 66.65625 70.9375 43.0625 101.707031 27.910156 C 131.65625 13.167969 165.019531 7.015625 198.1875 10.132812 C 204.976562 10.769531 209.964844 16.789062 209.328125 23.582031 C 208.691406 30.375 202.671875 35.367188 195.878906 34.722656 C 167.257812 32.035156 138.46875 37.34375 112.621094 50.074219 C 86.089844 63.136719 63.945312 83.484375 48.566406 108.917969 C 37.734375 126.835938 30.738281 146.332031 27.769531 166.867188 C 24.902344 186.707031 25.894531 206.683594 30.714844 226.242188 C 35.535156 245.800781 43.945312 263.949219 55.707031 280.183594 C 67.875 296.984375 83.136719 310.992188 101.054688 321.824219 C 118.972656 332.65625 138.46875 339.652344 159.003906 342.621094 C 178.84375 345.488281 198.820312 344.5 218.378906 339.675781 C 237.933594 334.855469 256.085938 326.445312 272.316406 314.6875 C 289.117188 302.515625 303.128906 287.257812 313.960938 269.339844 C 326.527344 248.546875 333.890625 225.820312 335.839844 201.792969 C 337.699219 178.871094 334.339844 155.359375 326.121094 133.796875 C 323.691406 127.425781 326.890625 120.289062 333.261719 117.859375 C 339.632812 115.429688 346.769531 118.625 349.203125 125 C 358.722656 149.976562 362.613281 177.222656 360.457031 203.789062 C 359.355469 217.371094 356.695312 230.832031 352.542969 243.800781 C 348.277344 257.136719 342.40625 270.023438 335.101562 282.113281 C 322.550781 302.875 306.304688 320.5625 286.8125 334.683594 C 267.988281 348.320312 246.953125 358.066406 224.292969 363.65625 C 210.066406 367.164062 195.644531 368.917969 181.191406 368.917969 Z M 181.191406 368.921875 " fill-opacity="1" fill-rule="nonzero"/><path fill="#df5a1c" d="M 136.601562 288.109375 C 130.332031 288.109375 124.179688 286.050781 119.128906 282.171875 C 112.570312 277.136719 108.503906 269.515625 107.96875 261.265625 L 105.730469 226.6875 C 105.210938 218.636719 107.558594 210.625 112.34375 204.128906 L 250.570312 16.4375 C 259.949219 3.699219 277.945312 0.96875 290.6875 10.347656 L 330.605469 39.746094 C 336.777344 44.289062 340.808594 50.964844 341.960938 58.542969 C 343.109375 66.117188 341.238281 73.691406 336.695312 79.863281 L 198.769531 267.148438 C 193.6875 274.050781 186.253906 278.773438 177.847656 280.449219 L 142.207031 287.546875 C 140.347656 287.917969 138.46875 288.101562 136.605469 288.101562 Z M 273.671875 29.464844 C 272.445312 29.464844 271.234375 30.027344 270.453125 31.089844 L 132.230469 218.78125 C 130.890625 220.601562 130.234375 222.84375 130.378906 225.097656 L 132.617188 259.671875 C 132.71875 261.246094 133.632812 262.171875 134.167969 262.582031 C 134.703125 262.996094 135.835938 263.640625 137.378906 263.332031 L 173.019531 256.234375 C 175.375 255.765625 177.457031 254.441406 178.878906 252.511719 L 316.804688 65.222656 C 317.65625 64.066406 317.628906 62.871094 317.535156 62.257812 C 317.445312 61.648438 317.117188 60.496094 315.957031 59.640625 L 276.035156 30.246094 C 275.324219 29.71875 274.496094 29.46875 273.671875 29.46875 Z M 273.671875 29.464844 " fill-opacity="1" fill-rule="nonzero"/><path fill="#df5a1c" d="M 304.664062 109.644531 C 302.121094 109.644531 299.558594 108.863281 297.351562 107.238281 L 239.25 64.449219 C 233.757812 60.40625 232.585938 52.675781 236.628906 47.183594 C 240.675781 41.691406 248.40625 40.515625 253.898438 44.5625 L 312 87.347656 C 317.492188 91.394531 318.664062 99.125 314.621094 104.617188 C 312.199219 107.90625 308.457031 109.644531 304.664062 109.644531 Z M 304.664062 109.644531 " fill-opacity="1" fill-rule="nonzero"/></svg>