<svg xmlns="http://www.w3.org/2000/svg" xmlns:xlink="http://www.w3.org/1999/xlink" width="423" zoomAndPan="magnify" viewBox="0 0 317.25 277.500005" height="370" preserveAspectRatio="xMidYMid meet" version="1.0"><defs><clipPath id="d0ef0aaefe"><path d="M 0 19 L 258 19 L 258 276.921875 L 0 276.921875 Z M 0 19 " clip-rule="nonzero"/></clipPath><clipPath id="8e473a921a"><path d="M 79 0.078125 L 316.5 0.078125 L 316.5 159 L 79 159 Z M 79 0.078125 " clip-rule="nonzero"/></clipPath></defs><g clip-path="url(#d0ef0aaefe)"><path fill="#ffffff" d="M 217.515625 237.371094 L 39.546875 237.371094 L 39.546875 59.40625 L 98.871094 59.40625 L 98.871094 19.855469 L 19.773438 19.855469 C 8.859375 19.855469 0 28.714844 0 39.628906 L 0 257.144531 C 0 268.078125 8.859375 276.917969 19.773438 276.917969 L 237.289062 276.917969 C 248.222656 276.917969 257.0625 268.078125 257.0625 257.144531 L 257.0625 158.886719 L 217.515625 158.886719 Z M 217.515625 237.371094 " fill-opacity="1" fill-rule="nonzero"/></g><g clip-path="url(#8e473a921a)"><path fill="#ffffff" d="M 312.429688 61.382812 L 233.332031 2.058594 C 230.367188 -0.195312 226.332031 -0.550781 222.992188 1.128906 C 219.628906 2.8125 217.515625 6.230469 217.515625 9.96875 L 217.515625 39.628906 L 187.851562 39.628906 C 127.878906 39.628906 79.097656 88.414062 79.097656 148.386719 C 79.097656 152.976562 82.261719 156.96875 86.710938 158.019531 C 87.460938 158.195312 88.230469 158.273438 88.984375 158.273438 C 92.660156 158.273438 96.121094 156.21875 97.820312 152.816406 L 100.15625 148.171875 C 115.324219 117.816406 145.8125 98.953125 179.746094 98.953125 L 217.515625 98.953125 L 217.515625 128.613281 C 217.515625 132.351562 219.628906 135.773438 222.972656 137.453125 C 226.3125 139.132812 230.347656 138.777344 233.332031 136.523438 L 312.429688 77.199219 C 314.921875 75.34375 316.386719 72.394531 316.386719 69.292969 C 316.386719 66.1875 314.921875 63.242188 312.429688 61.382812 Z M 312.429688 61.382812 " fill-opacity="1" fill-rule="nonzero"/></g></svg>