<svg xmlns="http://www.w3.org/2000/svg" xmlns:xlink="http://www.w3.org/1999/xlink" width="492" zoomAndPan="magnify" viewBox="0 0 369 368.999991" height="492" preserveAspectRatio="xMidYMid meet" version="1.0"><path fill="#df5a1c" d="M 362.972656 171.019531 L 291.082031 99.128906 C 290.640625 98.6875 290.175781 98.269531 289.695312 97.871094 C 289.210938 97.476562 288.710938 97.105469 288.191406 96.757812 C 287.671875 96.410156 287.136719 96.089844 286.585938 95.796875 C 286.035156 95.5 285.472656 95.234375 284.894531 94.996094 C 284.320312 94.757812 283.730469 94.546875 283.132812 94.367188 C 282.535156 94.183594 281.933594 94.03125 281.320312 93.910156 C 280.707031 93.789062 280.089844 93.699219 279.46875 93.636719 C 278.847656 93.574219 278.226562 93.542969 277.601562 93.542969 C 276.976562 93.542969 276.351562 93.574219 275.730469 93.636719 C 275.109375 93.699219 274.492188 93.789062 273.882812 93.910156 C 273.269531 94.03125 272.664062 94.183594 272.066406 94.367188 C 271.46875 94.546875 270.882812 94.757812 270.304688 94.996094 C 269.726562 95.234375 269.164062 95.5 268.613281 95.796875 C 268.0625 96.089844 267.527344 96.410156 267.007812 96.757812 C 266.488281 97.105469 265.988281 97.476562 265.507812 97.871094 C 265.023438 98.269531 264.5625 98.6875 264.121094 99.128906 C 263.679688 99.570312 263.261719 100.03125 262.863281 100.515625 C 262.46875 100.996094 262.097656 101.5 261.75 102.015625 C 261.402344 102.535156 261.082031 103.070312 260.789062 103.621094 C 260.492188 104.171875 260.226562 104.734375 259.988281 105.3125 C 259.75 105.890625 259.539062 106.476562 259.359375 107.074219 C 259.175781 107.671875 259.023438 108.277344 258.902344 108.890625 C 258.78125 109.5 258.691406 110.117188 258.628906 110.738281 C 258.566406 111.359375 258.535156 111.984375 258.535156 112.609375 C 258.535156 113.234375 258.566406 113.855469 258.628906 114.476562 C 258.691406 115.097656 258.78125 115.714844 258.902344 116.328125 C 259.023438 116.941406 259.175781 117.542969 259.359375 118.140625 C 259.539062 118.738281 259.75 119.328125 259.988281 119.902344 C 260.226562 120.480469 260.492188 121.042969 260.789062 121.59375 C 261.082031 122.144531 261.402344 122.679688 261.75 123.199219 C 262.097656 123.71875 262.46875 124.21875 262.863281 124.703125 C 263.261719 125.183594 263.679688 125.644531 264.121094 126.085938 L 303.46875 165.4375 L 95.316406 165.4375 C 94.691406 165.4375 94.070312 165.46875 93.449219 165.527344 C 92.828125 165.589844 92.210938 165.679688 91.597656 165.804688 C 90.984375 165.925781 90.378906 166.078125 89.78125 166.257812 C 89.183594 166.4375 88.597656 166.648438 88.019531 166.886719 C 87.445312 167.125 86.878906 167.394531 86.328125 167.6875 C 85.777344 167.980469 85.246094 168.300781 84.726562 168.648438 C 84.207031 168.996094 83.707031 169.367188 83.222656 169.765625 C 82.738281 170.160156 82.277344 170.578125 81.835938 171.019531 C 81.394531 171.460938 80.976562 171.921875 80.582031 172.40625 C 80.183594 172.890625 79.8125 173.390625 79.464844 173.910156 C 79.117188 174.429688 78.796875 174.964844 78.503906 175.511719 C 78.210938 176.0625 77.941406 176.628906 77.703125 177.203125 C 77.464844 177.78125 77.253906 178.367188 77.074219 178.964844 C 76.894531 179.5625 76.742188 180.167969 76.621094 180.78125 C 76.496094 181.394531 76.40625 182.011719 76.34375 182.632812 C 76.285156 183.253906 76.253906 183.875 76.253906 184.5 C 76.253906 185.125 76.285156 185.746094 76.34375 186.367188 C 76.40625 186.988281 76.496094 187.605469 76.621094 188.21875 C 76.742188 188.832031 76.890625 189.4375 77.074219 190.035156 C 77.253906 190.632812 77.464844 191.21875 77.703125 191.796875 C 77.941406 192.371094 78.210938 192.9375 78.503906 193.488281 C 78.796875 194.035156 79.117188 194.570312 79.464844 195.089844 C 79.8125 195.609375 80.183594 196.109375 80.582031 196.59375 C 80.976562 197.078125 81.394531 197.539062 81.835938 197.980469 C 82.277344 198.421875 82.738281 198.839844 83.222656 199.234375 C 83.707031 199.632812 84.207031 200.003906 84.726562 200.351562 C 85.246094 200.699219 85.777344 201.019531 86.328125 201.3125 C 86.878906 201.605469 87.445312 201.875 88.019531 202.113281 C 88.597656 202.351562 89.183594 202.5625 89.78125 202.742188 C 90.378906 202.921875 90.984375 203.074219 91.597656 203.195312 C 92.210938 203.320312 92.828125 203.410156 93.449219 203.472656 C 94.070312 203.53125 94.691406 203.5625 95.316406 203.5625 L 303.46875 203.5625 L 264.121094 242.914062 C 263.679688 243.355469 263.261719 243.816406 262.863281 244.296875 C 262.46875 244.78125 262.097656 245.28125 261.75 245.800781 C 261.402344 246.320312 261.082031 246.855469 260.789062 247.40625 C 260.492188 247.957031 260.226562 248.519531 259.988281 249.097656 C 259.75 249.671875 259.539062 250.261719 259.359375 250.859375 C 259.175781 251.457031 259.023438 252.0625 258.902344 252.671875 C 258.78125 253.285156 258.691406 253.902344 258.628906 254.523438 C 258.566406 255.144531 258.535156 255.769531 258.535156 256.390625 C 258.535156 257.015625 258.566406 257.640625 258.628906 258.261719 C 258.691406 258.882812 258.78125 259.5 258.902344 260.109375 C 259.023438 260.722656 259.175781 261.328125 259.359375 261.925781 C 259.539062 262.523438 259.75 263.109375 259.988281 263.6875 C 260.226562 264.265625 260.492188 264.828125 260.789062 265.378906 C 261.082031 265.929688 261.402344 266.464844 261.75 266.984375 C 262.097656 267.503906 262.46875 268.003906 262.863281 268.484375 C 263.261719 268.96875 263.679688 269.429688 264.121094 269.871094 C 264.5625 270.3125 265.023438 270.730469 265.507812 271.128906 C 265.988281 271.523438 266.492188 271.894531 267.007812 272.242188 C 267.527344 272.589844 268.0625 272.910156 268.613281 273.203125 C 269.164062 273.5 269.730469 273.765625 270.304688 274.003906 C 270.882812 274.242188 271.46875 274.453125 272.066406 274.632812 C 272.664062 274.816406 273.269531 274.96875 273.882812 275.089844 C 274.492188 275.210938 275.109375 275.300781 275.730469 275.363281 C 276.355469 275.425781 276.976562 275.457031 277.601562 275.457031 C 278.226562 275.457031 278.847656 275.425781 279.46875 275.363281 C 280.089844 275.300781 280.707031 275.210938 281.320312 275.089844 C 281.933594 274.96875 282.535156 274.816406 283.132812 274.632812 C 283.730469 274.453125 284.320312 274.242188 284.894531 274.003906 C 285.472656 273.765625 286.035156 273.5 286.585938 273.203125 C 287.136719 272.910156 287.671875 272.589844 288.191406 272.242188 C 288.710938 271.894531 289.210938 271.523438 289.695312 271.128906 C 290.175781 270.730469 290.640625 270.3125 291.082031 269.871094 L 362.972656 197.980469 C 363.414062 197.539062 363.832031 197.074219 364.230469 196.59375 C 364.625 196.109375 364.996094 195.609375 365.34375 195.089844 C 365.691406 194.570312 366.011719 194.035156 366.304688 193.484375 C 366.597656 192.933594 366.867188 192.371094 367.105469 191.792969 C 367.34375 191.21875 367.554688 190.628906 367.734375 190.035156 C 367.917969 189.4375 368.066406 188.832031 368.191406 188.21875 C 368.3125 187.605469 368.402344 186.988281 368.464844 186.367188 C 368.527344 185.746094 368.554688 185.125 368.554688 184.5 C 368.554688 183.875 368.527344 183.253906 368.464844 182.632812 C 368.402344 182.007812 368.3125 181.394531 368.191406 180.78125 C 368.066406 180.167969 367.917969 179.5625 367.734375 178.964844 C 367.554688 178.367188 367.34375 177.78125 367.105469 177.203125 C 366.867188 176.628906 366.597656 176.0625 366.304688 175.511719 C 366.011719 174.960938 365.691406 174.429688 365.34375 173.910156 C 364.996094 173.390625 364.625 172.886719 364.230469 172.40625 C 363.832031 171.921875 363.414062 171.460938 362.972656 171.019531 Z M 362.972656 171.019531 " fill-opacity="1" fill-rule="nonzero"/><path fill="#df5a1c" d="M 222.40625 292.523438 C 221.78125 292.523438 221.15625 292.554688 220.535156 292.617188 C 219.914062 292.679688 219.296875 292.769531 218.683594 292.890625 C 218.074219 293.011719 217.46875 293.164062 216.871094 293.347656 C 216.273438 293.527344 215.6875 293.738281 215.109375 293.976562 C 214.53125 294.214844 213.96875 294.480469 213.417969 294.777344 C 212.867188 295.070312 212.332031 295.390625 211.8125 295.738281 C 211.292969 296.085938 210.792969 296.457031 210.3125 296.851562 C 209.828125 297.25 209.367188 297.667969 208.925781 298.109375 C 208.484375 298.550781 208.0625 299.011719 207.667969 299.496094 C 207.273438 299.976562 206.902344 300.476562 206.554688 300.996094 C 206.207031 301.515625 205.886719 302.050781 205.59375 302.601562 C 205.296875 303.152344 205.03125 303.714844 204.792969 304.292969 C 204.554688 304.871094 204.34375 305.457031 204.160156 306.054688 C 203.980469 306.652344 203.828125 307.257812 203.707031 307.871094 C 203.585938 308.480469 203.496094 309.097656 203.433594 309.71875 C 203.371094 310.339844 203.339844 310.964844 203.339844 311.589844 L 203.339844 330.652344 L 38.125 330.652344 L 38.125 38.347656 L 203.339844 38.347656 L 203.339844 57.410156 C 203.339844 58.035156 203.371094 58.660156 203.433594 59.28125 C 203.496094 59.902344 203.585938 60.519531 203.707031 61.128906 C 203.828125 61.742188 203.980469 62.347656 204.160156 62.945312 C 204.34375 63.542969 204.554688 64.128906 204.792969 64.707031 C 205.03125 65.285156 205.296875 65.847656 205.59375 66.398438 C 205.886719 66.949219 206.207031 67.484375 206.554688 68.003906 C 206.902344 68.523438 207.273438 69.023438 207.667969 69.503906 C 208.0625 69.988281 208.484375 70.449219 208.925781 70.890625 C 209.367188 71.332031 209.828125 71.75 210.3125 72.148438 C 210.792969 72.542969 211.292969 72.914062 211.8125 73.261719 C 212.332031 73.609375 212.867188 73.929688 213.417969 74.222656 C 213.96875 74.519531 214.53125 74.785156 215.109375 75.023438 C 215.6875 75.261719 216.273438 75.472656 216.871094 75.652344 C 217.46875 75.835938 218.074219 75.988281 218.683594 76.109375 C 219.296875 76.230469 219.914062 76.320312 220.535156 76.382812 C 221.15625 76.445312 221.78125 76.476562 222.40625 76.476562 C 223.027344 76.476562 223.652344 76.445312 224.273438 76.382812 C 224.894531 76.320312 225.511719 76.230469 226.125 76.109375 C 226.734375 75.988281 227.339844 75.835938 227.9375 75.652344 C 228.535156 75.472656 229.121094 75.261719 229.699219 75.023438 C 230.277344 74.785156 230.839844 74.519531 231.390625 74.222656 C 231.941406 73.929688 232.476562 73.609375 232.996094 73.261719 C 233.515625 72.914062 234.015625 72.542969 234.496094 72.148438 C 234.980469 71.75 235.441406 71.332031 235.882812 70.890625 C 236.324219 70.449219 236.746094 69.988281 237.140625 69.503906 C 237.535156 69.023438 237.90625 68.523438 238.253906 68.003906 C 238.601562 67.484375 238.921875 66.949219 239.214844 66.398438 C 239.511719 65.847656 239.777344 65.285156 240.015625 64.707031 C 240.253906 64.128906 240.464844 63.542969 240.648438 62.945312 C 240.828125 62.347656 240.980469 61.742188 241.101562 61.128906 C 241.222656 60.519531 241.316406 59.902344 241.375 59.28125 C 241.4375 58.660156 241.46875 58.035156 241.46875 57.410156 L 241.46875 31.992188 C 241.46875 30.953125 241.417969 29.914062 241.316406 28.878906 C 241.210938 27.84375 241.058594 26.816406 240.855469 25.796875 C 240.652344 24.773438 240.402344 23.765625 240.097656 22.769531 C 239.796875 21.773438 239.449219 20.796875 239.050781 19.835938 C 238.652344 18.875 238.207031 17.933594 237.714844 17.015625 C 237.226562 16.097656 236.691406 15.207031 236.113281 14.34375 C 235.535156 13.476562 234.914062 12.640625 234.253906 11.839844 C 233.59375 11.035156 232.898438 10.261719 232.160156 9.527344 C 231.425781 8.792969 230.65625 8.09375 229.851562 7.433594 C 229.046875 6.773438 228.210938 6.15625 227.347656 5.578125 C 226.480469 5 225.589844 4.464844 224.671875 3.972656 C 223.753906 3.484375 222.816406 3.039062 221.855469 2.640625 C 220.894531 2.242188 219.914062 1.890625 218.917969 1.589844 C 217.921875 1.289062 216.914062 1.035156 215.894531 0.832031 C 214.875 0.628906 213.84375 0.476562 212.808594 0.375 C 211.773438 0.273438 210.734375 0.222656 209.695312 0.222656 L 31.773438 0.222656 C 30.730469 0.222656 29.695312 0.273438 28.65625 0.375 C 27.621094 0.476562 26.59375 0.628906 25.574219 0.832031 C 24.554688 1.035156 23.542969 1.289062 22.550781 1.589844 C 21.554688 1.890625 20.574219 2.242188 19.613281 2.640625 C 18.652344 3.039062 17.710938 3.484375 16.792969 3.972656 C 15.878906 4.464844 14.984375 5 14.121094 5.578125 C 13.253906 6.15625 12.421875 6.773438 11.617188 7.433594 C 10.8125 8.09375 10.042969 8.792969 9.304688 9.527344 C 8.570312 10.261719 7.871094 11.035156 7.210938 11.839844 C 6.550781 12.640625 5.933594 13.476562 5.355469 14.34375 C 4.777344 15.207031 4.242188 16.097656 3.75 17.015625 C 3.261719 17.933594 2.816406 18.875 2.417969 19.835938 C 2.019531 20.796875 1.671875 21.777344 1.367188 22.769531 C 1.066406 23.765625 0.8125 24.773438 0.609375 25.796875 C 0.40625 26.816406 0.253906 27.84375 0.152344 28.878906 C 0.0507812 29.914062 0 30.953125 0 31.992188 L 0 337.007812 C 0 338.046875 0.0507812 339.085938 0.152344 340.121094 C 0.253906 341.15625 0.40625 342.183594 0.609375 343.203125 C 0.8125 344.226562 1.066406 345.234375 1.367188 346.230469 C 1.671875 347.222656 2.019531 348.203125 2.417969 349.164062 C 2.816406 350.125 3.261719 351.066406 3.75 351.984375 C 4.242188 352.902344 4.777344 353.792969 5.355469 354.65625 C 5.933594 355.523438 6.550781 356.359375 7.210938 357.160156 C 7.871094 357.964844 8.570312 358.738281 9.304688 359.472656 C 10.042969 360.207031 10.8125 360.90625 11.617188 361.566406 C 12.421875 362.226562 13.253906 362.84375 14.121094 363.421875 C 14.984375 364 15.878906 364.535156 16.792969 365.027344 C 17.710938 365.515625 18.652344 365.960938 19.613281 366.359375 C 20.574219 366.757812 21.554688 367.109375 22.550781 367.410156 C 23.542969 367.710938 24.554688 367.964844 25.574219 368.167969 C 26.59375 368.371094 27.621094 368.523438 28.65625 368.625 C 29.695312 368.726562 30.730469 368.777344 31.773438 368.777344 L 209.695312 368.777344 C 210.734375 368.777344 211.773438 368.726562 212.808594 368.625 C 213.84375 368.523438 214.875 368.371094 215.894531 368.167969 C 216.914062 367.964844 217.921875 367.710938 218.917969 367.410156 C 219.914062 367.109375 220.894531 366.757812 221.855469 366.359375 C 222.816406 365.960938 223.753906 365.515625 224.671875 365.027344 C 225.589844 364.535156 226.480469 364 227.347656 363.421875 C 228.210938 362.84375 229.046875 362.226562 229.851562 361.566406 C 230.65625 360.90625 231.425781 360.207031 232.160156 359.472656 C 232.898438 358.738281 233.59375 357.964844 234.253906 357.160156 C 234.914062 356.359375 235.535156 355.523438 236.113281 354.65625 C 236.691406 353.792969 237.226562 352.902344 237.714844 351.984375 C 238.207031 351.066406 238.652344 350.125 239.050781 349.164062 C 239.449219 348.203125 239.796875 347.222656 240.097656 346.230469 C 240.402344 345.234375 240.652344 344.226562 240.855469 343.203125 C 241.058594 342.183594 241.210938 341.15625 241.316406 340.121094 C 241.417969 339.085938 241.46875 338.046875 241.46875 337.007812 L 241.46875 311.589844 C 241.46875 310.964844 241.4375 310.339844 241.375 309.71875 C 241.316406 309.097656 241.222656 308.480469 241.101562 307.871094 C 240.980469 307.257812 240.828125 306.652344 240.648438 306.054688 C 240.464844 305.457031 240.253906 304.871094 240.015625 304.292969 C 239.777344 303.714844 239.511719 303.152344 239.214844 302.601562 C 238.921875 302.050781 238.601562 301.515625 238.253906 300.996094 C 237.90625 300.476562 237.535156 299.976562 237.140625 299.496094 C 236.746094 299.011719 236.324219 298.550781 235.882812 298.109375 C 235.441406 297.667969 234.980469 297.25 234.496094 296.851562 C 234.015625 296.457031 233.515625 296.085938 232.996094 295.738281 C 232.476562 295.390625 231.941406 295.070312 231.390625 294.777344 C 230.839844 294.480469 230.277344 294.214844 229.699219 293.976562 C 229.121094 293.738281 228.535156 293.527344 227.9375 293.347656 C 227.339844 293.164062 226.734375 293.011719 226.125 292.890625 C 225.511719 292.769531 224.894531 292.679688 224.273438 292.617188 C 223.652344 292.554688 223.027344 292.523438 222.40625 292.523438 Z M 222.40625 292.523438 " fill-opacity="1" fill-rule="nonzero"/></svg>