<svg xmlns="http://www.w3.org/2000/svg" xmlns:xlink="http://www.w3.org/1999/xlink" width="492" zoomAndPan="magnify" viewBox="0 0 369 368.999991" height="492" preserveAspectRatio="xMidYMid meet" version="1.0"><defs><clipPath id="aee058e261"><path d="M 0 1.644531 L 366 1.644531 L 366 367 L 0 367 Z M 0 1.644531 " clip-rule="nonzero"/></clipPath></defs><g clip-path="url(#aee058e261)"><path fill="#ffffff" d="M 236.113281 270.265625 L 326.085938 360.207031 C 334.996094 369.113281 349.460938 369.113281 358.371094 360.203125 C 367.277344 351.292969 367.273438 336.824219 358.367188 327.917969 L 268.453125 238.035156 C 286.539062 213.433594 297.230469 183.050781 297.230469 150.191406 C 297.230469 68.203125 230.671875 1.644531 148.683594 1.644531 C 66.699219 1.644531 0.136719 68.203125 0.136719 150.191406 C 0.136719 232.175781 66.699219 298.738281 148.683594 298.738281 C 181.355469 298.738281 211.578125 288.167969 236.113281 270.265625 Z M 148.683594 47.300781 C 205.472656 47.300781 251.578125 93.402344 251.578125 150.191406 C 251.578125 206.976562 205.472656 253.082031 148.683594 253.082031 C 91.898438 253.082031 45.792969 206.976562 45.792969 150.191406 C 45.792969 93.402344 91.898438 47.300781 148.683594 47.300781 Z M 148.683594 47.300781 " fill-opacity="1" fill-rule="evenodd"/></g></svg>