<svg xmlns="http://www.w3.org/2000/svg" xmlns:xlink="http://www.w3.org/1999/xlink" width="423" zoomAndPan="magnify" viewBox="0 0 317.25 368.999991" height="492" preserveAspectRatio="xMidYMid meet" version="1.0"><defs><clipPath id="d2b9477e83"><path d="M 0 1.582031 L 316 1.582031 L 316 366.71875 L 0 366.71875 Z M 0 1.582031 " clip-rule="nonzero"/></clipPath></defs><g clip-path="url(#d2b9477e83)"><path fill="#df5a1c" d="M 290.734375 41.140625 L 238.074219 41.140625 L 238.074219 33.621094 C 238.074219 15.984375 223.726562 1.640625 206.09375 1.640625 L 110.003906 1.640625 C 92.367188 1.640625 78.023438 15.984375 78.023438 33.621094 L 78.023438 41.140625 L 25.363281 41.140625 C 11.566406 41.140625 0.339844 52.363281 0.339844 66.15625 L 0.339844 78.019531 C 0.339844 90.933594 10.175781 101.589844 22.742188 102.90625 L 48.507812 329.003906 C 50.964844 350.597656 69.214844 366.878906 90.949219 366.878906 L 225.144531 366.878906 C 246.878906 366.878906 265.125 350.597656 267.582031 329.003906 L 293.347656 102.90625 C 305.921875 101.59375 315.753906 90.933594 315.753906 78.019531 L 315.753906 66.15625 C 315.753906 52.363281 304.523438 41.140625 290.730469 41.140625 Z M 94.265625 33.621094 C 94.265625 24.9375 101.324219 17.878906 110.007812 17.878906 L 206.097656 17.878906 C 214.78125 17.878906 221.839844 24.9375 221.839844 33.621094 L 221.839844 41.140625 L 94.265625 41.140625 Z M 251.453125 327.167969 C 249.929688 340.550781 238.621094 350.640625 225.152344 350.640625 L 90.957031 350.640625 C 77.484375 350.640625 66.175781 340.550781 64.652344 327.167969 L 39.117188 103.042969 L 276.996094 103.042969 L 251.457031 327.167969 Z M 299.523438 78.019531 C 299.523438 82.863281 295.582031 86.804688 290.738281 86.804688 L 25.363281 86.804688 C 20.519531 86.804688 16.578125 82.863281 16.578125 78.019531 L 16.578125 66.15625 C 16.578125 61.320312 20.519531 57.375 25.363281 57.375 L 290.730469 57.375 C 295.574219 57.375 299.515625 61.320312 299.515625 66.15625 L 299.515625 78.019531 Z M 299.523438 78.019531 " fill-opacity="1" fill-rule="nonzero"/></g><path fill="#df5a1c" d="M 158.046875 306.699219 C 162.53125 306.699219 166.167969 303.058594 166.167969 298.578125 L 166.167969 155.105469 C 166.167969 150.625 162.53125 146.988281 158.046875 146.988281 C 153.566406 146.988281 149.929688 150.625 149.929688 155.105469 L 149.929688 298.578125 C 149.929688 303.058594 153.566406 306.699219 158.046875 306.699219 Z M 158.046875 306.699219 " fill-opacity="1" fill-rule="nonzero"/><path fill="#df5a1c" d="M 206.582031 306.320312 C 206.851562 306.347656 207.121094 306.359375 207.378906 306.359375 C 211.511719 306.359375 215.042969 303.226562 215.449219 299.03125 L 229.359375 156.230469 C 229.792969 151.765625 226.527344 147.796875 222.066406 147.359375 C 217.539062 146.902344 213.632812 150.191406 213.195312 154.652344 L 199.289062 297.449219 C 198.855469 301.914062 202.117188 305.886719 206.578125 306.320312 Z M 206.582031 306.320312 " fill-opacity="1" fill-rule="nonzero"/><path fill="#df5a1c" d="M 108.714844 306.359375 C 108.976562 306.359375 109.242188 306.347656 109.511719 306.320312 C 113.972656 305.890625 117.238281 301.914062 116.804688 297.449219 L 102.894531 154.652344 C 102.460938 150.191406 98.550781 146.90625 94.023438 147.359375 C 89.5625 147.792969 86.300781 151.765625 86.734375 156.230469 L 100.640625 299.03125 C 101.050781 303.222656 104.582031 306.359375 108.710938 306.359375 Z M 108.714844 306.359375 " fill-opacity="1" fill-rule="nonzero"/></svg>